<?xml version="1.0" encoding="utf-8"?>
<!-- Generator: Adobe Illustrator 19.2.0, SVG Export Plug-In . SVG Version: 6.00 Build 0)  -->
<svg version="1.1" id="Layer_1" xmlns="http://www.w3.org/2000/svg" xmlns:xlink="http://www.w3.org/1999/xlink" x="0px" y="0px"
	 viewBox="0 0 32 32" width="32" height="32" style="enable-background:new 0 0 32 32;" xml:space="preserve">
<style type="text/css">
	.st0{fill:#FFFFFF;}
	.st1{fill:#007AB9;}
</style>
<g>
	<rect x="6.2" y="5.8" class="st0" width="20.1" height="19.1"/>
	<path class="st1" d="M16,0C7.2,0,0,7.2,0,16c0,8.8,7.2,16,16,16s16-7.2,16-16C32,7.2,24.8,0,16,0z M11.9,23.5H8.3V12.6h3.6V23.5z
		 M10.1,11.2L10.1,11.2c-1.2,0-2-0.8-2-1.9c0-1.1,0.8-1.9,2-1.9c1.2,0,2,0.8,2,1.9C12.2,10.3,11.4,11.2,10.1,11.2z M25,23.5L25,23.5
		l-3.6,0v-5.8c0-1.5-0.5-2.5-1.8-2.5c-1,0-1.6,0.7-1.9,1.3c-0.1,0.2-0.1,0.6-0.1,0.9v6.1h-3.6c0,0,0-9.9,0-10.9h3.6v1.5
		c0.5-0.7,1.3-1.8,3.3-1.8c2.4,0,4.2,1.6,4.2,4.9V23.5z"/>
</g>
</svg>
