<?xml version="1.0" encoding="utf-8"?>
<!-- Generator: Adobe Illustrator 19.2.0, SVG Export Plug-In . SVG Version: 6.00 Build 0)  -->
<svg version="1.1" id="Layer_1" xmlns="http://www.w3.org/2000/svg" xmlns:xlink="http://www.w3.org/1999/xlink" x="0px" y="0px"
	 width="1920px" height="815px" viewBox="0 0 1920 815" style="enable-background:new 0 0 1920 815;" xml:space="preserve">
<style type="text/css">
	.st0{clip-path:url(#SVGID_3_);}
	.st1{display:none;}
	.st2{display:inline;}
	.st3{fill:#D82538;}
	.st4{clip-path:url(#SVGID_5_);fill:#C42B40;}
	.st5{clip-path:url(#SVGID_7_);fill:#801F32;}
	.st6{clip-path:url(#SVGID_9_);fill:#E23435;}
	.st7{clip-path:url(#SVGID_11_);fill:#E23435;}
	.st8{fill:#7F1F31;}
	.st9{fill:#E2E2E2;}
	.st10{clip-path:url(#SVGID_13_);fill:#494949;}
	.st11{clip-path:url(#SVGID_15_);fill:#494949;}
	.st12{clip-path:url(#SVGID_17_);fill:#494949;}
	.st13{opacity:0.15;clip-path:url(#SVGID_19_);fill:#212526;enable-background:new    ;}
	.st14{clip-path:url(#SVGID_21_);fill:#494949;}
	.st15{clip-path:url(#SVGID_23_);fill:#494949;}
	.st16{clip-path:url(#SVGID_25_);fill:#494949;}
	.st17{opacity:0.15;clip-path:url(#SVGID_27_);fill:#212526;enable-background:new    ;}
	.st18{clip-path:url(#SVGID_29_);fill:#494949;}
	.st19{fill:#D82537;}
	.st20{clip-path:url(#SVGID_31_);fill:#494949;}
	.st21{fill:#F0F0F0;}
	.st22{clip-path:url(#SVGID_33_);fill:#E2E2E2;}
	.st23{clip-path:url(#SVGID_35_);fill:#CACDCE;}
	.st24{fill:#F7ECDF;}
	.st25{clip-path:url(#SVGID_37_);fill:#EFE0CA;}
	.st26{clip-path:url(#SVGID_39_);fill:#494949;}
	.st27{clip-path:url(#SVGID_41_);fill:#FAD175;}
	.st28{clip-path:url(#SVGID_43_);fill:#F9DA78;}
	.st29{clip-path:url(#SVGID_45_);fill:#F9C178;}
	.st30{clip-path:url(#SVGID_47_);fill:#EE508E;}
	.st31{fill:#3D3D3D;}
	.st32{fill:#F9DA78;}
	.st33{fill:#F9C178;}
	.st34{fill:#FFFFFF;}
	.st35{display:none;clip-path:url(#SVGID_49_);}
	.st36{fill:#E4CED9;}
	.st37{clip-path:url(#SVGID_51_);}
	.st38{fill:none;stroke:#E4CED9;stroke-miterlimit:10;}
</style>
<g>
	<defs>
		<rect id="SVGID_2_" x="0.5" width="1919.5" height="815"/>
	</defs>
	<clipPath id="SVGID_3_">
		<use xlink:href="#SVGID_2_"  style="overflow:visible;"/>
	</clipPath>
	<g id="Layer_1_1_" class="st0">
		<g id="rocket" class="st1">
			<rect x="0.5" y="11.5" class="st2" width="1920" height="815.4"/>
			<g id="body" class="st2">
				<g>
					<g>
						<g>
							<path id="SVGID_1_" class="st3" d="M242.5,11.7c-22,0-49.5,43.6-49.5,75.3v118.7h99V87C292,57.4,265.4,11.7,242.5,11.7z"/>
						</g>
						<g>
							<g>
								<g>
									<defs>
										<path id="SVGID_4_" d="M242.5,11.7c-22,0-49.5,43.6-49.5,75.3v118.7h99V87C292,57.4,265.4,11.7,242.5,11.7z"/>
									</defs>
									<clipPath id="SVGID_5_">
										<use xlink:href="#SVGID_4_"  style="overflow:visible;"/>
									</clipPath>
									<rect x="242.3" y="11.7" class="st4" width="58.5" height="190"/>
								</g>
							</g>
						</g>
						<g>
							<g>
								<g>
									<defs>
										<path id="SVGID_6_" d="M242.5,11.7c-22,0-49.5,43.6-49.5,75.3v118.7h99V87C292,57.4,265.4,11.7,242.5,11.7z"/>
									</defs>
									<clipPath id="SVGID_7_">
										<use xlink:href="#SVGID_6_"  style="overflow:visible;"/>
									</clipPath>
									<rect x="184.2" y="3" class="st5" width="113.3" height="59.3"/>
								</g>
							</g>
						</g>
						<g>
							<g>
								<g>
									<defs>
										<path id="SVGID_8_" d="M242.5,11.7c-22,0-49.5,43.6-49.5,75.3v118.7h99V87C292,57.4,265.4,11.7,242.5,11.7z"/>
									</defs>
									<clipPath id="SVGID_9_">
										<use xlink:href="#SVGID_8_"  style="overflow:visible;"/>
									</clipPath>
									<rect x="163.7" y="93.2" class="st6" width="205.3" height="7"/>
								</g>
							</g>
						</g>
						<g>
							<g>
								<g>
									<defs>
										<path id="SVGID_10_" d="M242.5,11.7c-22,0-49.5,43.6-49.5,75.3v118.7h99V87C292,57.4,265.4,11.7,242.5,11.7z"/>
									</defs>
									<clipPath id="SVGID_11_">
										<use xlink:href="#SVGID_10_"  style="overflow:visible;"/>
									</clipPath>
									<rect x="163.7" y="118.2" class="st7" width="205.3" height="7"/>
								</g>
							</g>
						</g>
					</g>
					<g id="Raketka">
						<rect x="170" y="283.7" class="st8" width="35" height="29"/>
						<g>
							<g>
								<path id="XMLID_13_" class="st9" d="M187,85.7c0,0-16,13.3-16,31v154h32v-154C203,99.6,187,85.7,187,85.7z"/>
							</g>
							<g>
								<g>
									<g>
										<defs>
											<path id="SVGID_12_" d="M187,85.7c0,0-16,13.3-16,31v154h32v-154C203,99.6,187,85.7,187,85.7z"/>
										</defs>
										<clipPath id="SVGID_13_">
											<use xlink:href="#SVGID_12_"  style="overflow:visible;"/>
										</clipPath>
										<rect x="161" y="127.7" class="st10" width="48" height="18"/>
									</g>
								</g>
							</g>
							<g>
								<g>
									<g>
										<defs>
											<path id="SVGID_14_" d="M187,85.7c0,0-16,13.3-16,31v154h32v-154C203,99.6,187,85.7,187,85.7z"/>
										</defs>
										<clipPath id="SVGID_15_">
											<use xlink:href="#SVGID_14_"  style="overflow:visible;"/>
										</clipPath>
										<rect x="161" y="172.7" class="st11" width="48" height="8"/>
									</g>
								</g>
							</g>
							<g>
								<g>
									<g>
										<defs>
											<path id="SVGID_16_" d="M187,85.7c0,0-16,13.3-16,31v154h32v-154C203,99.6,187,85.7,187,85.7z"/>
										</defs>
										<clipPath id="SVGID_17_">
											<use xlink:href="#SVGID_16_"  style="overflow:visible;"/>
										</clipPath>
										<rect x="161" y="186.7" class="st12" width="48" height="8"/>
									</g>
								</g>
							</g>
							<g>
								<g>
									<g>
										<defs>
											<path id="SVGID_18_" d="M187,85.7c0,0-16,13.3-16,31v154h32v-154C203,99.6,187,85.7,187,85.7z"/>
										</defs>
										<clipPath id="SVGID_19_">
											<use xlink:href="#SVGID_18_"  style="overflow:visible;"/>
										</clipPath>
										<rect x="187" y="81.7" class="st13" width="16" height="193"/>
									</g>
								</g>
							</g>
						</g>
						<g>
							<g>
								<path id="XMLID_7_" class="st9" d="M298,85.7c0,0-16,13.3-16,31v154h32v-154C314,99.6,298,85.7,298,85.7z"/>
							</g>
							<g>
								<g>
									<g>
										<defs>
											<path id="SVGID_20_" d="M298,85.7c0,0-16,13.3-16,31v154h32v-154C314,99.6,298,85.7,298,85.7z"/>
										</defs>
										<clipPath id="SVGID_21_">
											<use xlink:href="#SVGID_20_"  style="overflow:visible;"/>
										</clipPath>
										<rect x="272" y="127.7" class="st14" width="48" height="18"/>
									</g>
								</g>
							</g>
							<g>
								<g>
									<g>
										<defs>
											<path id="SVGID_22_" d="M298,85.7c0,0-16,13.3-16,31v154h32v-154C314,99.6,298,85.7,298,85.7z"/>
										</defs>
										<clipPath id="SVGID_23_">
											<use xlink:href="#SVGID_22_"  style="overflow:visible;"/>
										</clipPath>
										<rect x="272" y="172.7" class="st15" width="48" height="8"/>
									</g>
								</g>
							</g>
							<g>
								<g>
									<g>
										<defs>
											<path id="SVGID_24_" d="M298,85.7c0,0-16,13.3-16,31v154h32v-154C314,99.6,298,85.7,298,85.7z"/>
										</defs>
										<clipPath id="SVGID_25_">
											<use xlink:href="#SVGID_24_"  style="overflow:visible;"/>
										</clipPath>
										<rect x="272" y="186.7" class="st16" width="48" height="8"/>
									</g>
								</g>
							</g>
							<g>
								<g>
									<g>
										<defs>
											<path id="SVGID_26_" d="M298,85.7c0,0-16,13.3-16,31v154h32v-154C314,99.6,298,85.7,298,85.7z"/>
										</defs>
										<clipPath id="SVGID_27_">
											<use xlink:href="#SVGID_26_"  style="overflow:visible;"/>
										</clipPath>
										<rect x="298" y="81.7" class="st17" width="16" height="193"/>
									</g>
								</g>
							</g>
						</g>
						<polygon class="st8" points="204.4,316.7 170.6,316.7 174.5,323.7 200.5,323.7 						"/>
						<g>
							<g>
								<polygon id="XMLID_10_" class="st9" points="167,337.7 208,337.7 200.5,323.7 174.5,323.7 								"/>
							</g>
							<g>
								<g>
									<g>
										<defs>
											<polygon id="SVGID_28_" points="167,337.7 208,337.7 200.5,323.7 174.5,323.7 											"/>
										</defs>
										<clipPath id="SVGID_29_">
											<use xlink:href="#SVGID_28_"  style="overflow:visible;"/>
										</clipPath>
										<rect x="161" y="334.7" class="st18" width="49" height="6"/>
									</g>
								</g>
							</g>
						</g>
						<path class="st19" d="M205,313.9c0-0.7-0.6-1.2-1.2-1.2h-33.5c-0.7,0-1.2,0.6-1.2,1.2v1.5c0,0.7,0.6,1.2,1.2,1.2h33.5
							c0.7,0,1.2-0.6,1.2-1.2V313.9z"/>
						<rect x="280" y="283.7" class="st8" width="35" height="29"/>
						<polygon class="st8" points="314.4,316.7 280.6,316.7 284.5,323.7 310.5,323.7 						"/>
						<g>
							<g>
								<polygon id="XMLID_12_" class="st9" points="277,337.7 318,337.7 310.5,323.7 284.5,323.7 								"/>
							</g>
							<g>
								<g>
									<g>
										<defs>
											<polygon id="SVGID_30_" points="277,337.7 318,337.7 310.5,323.7 284.5,323.7 											"/>
										</defs>
										<clipPath id="SVGID_31_">
											<use xlink:href="#SVGID_30_"  style="overflow:visible;"/>
										</clipPath>
										<rect x="271" y="334.7" class="st20" width="49" height="6"/>
									</g>
								</g>
							</g>
						</g>
						<path class="st19" d="M315,313.9c0-0.7-0.6-1.2-1.2-1.2h-33.5c-0.7,0-1.2,0.6-1.2,1.2v1.5c0,0.7,0.6,1.2,1.2,1.2h33.5
							c0.7,0,1.2-0.6,1.2-1.2V313.9z"/>
						<g>
							<g>
								<path id="XMLID_4_" class="st21" d="M160.1,300.4c-7.9-1.7-12.8-4.3-11.6-14.8c1.2-10.6,2.9-10.9,4.3-14.2
									c1.4-3.4,8.9-10.6,15.4-13.5c6.5-2.9,28.6-22.2,31.8-47.2c3.1-25,2.2-27.8,9.7-35.7c8.2,0,8.4-4.3,8.4-4.3l2,135
									C220,305.7,168,302.1,160.1,300.4z"/>
							</g>
							<g>
								<g>
									<g>
										<defs>
											<path id="SVGID_32_" d="M160.1,300.4c-7.9-1.7-12.8-4.3-11.6-14.8c1.2-10.6,2.9-10.9,4.3-14.2
												c1.4-3.4,8.9-10.6,15.4-13.5c6.5-2.9,28.6-22.2,31.8-47.2c3.1-25,2.2-27.8,9.7-35.7c8.2,0,8.4-4.3,8.4-4.3l2,135
												C220,305.7,168,302.1,160.1,300.4z"/>
										</defs>
										<clipPath id="SVGID_33_">
											<use xlink:href="#SVGID_32_"  style="overflow:visible;"/>
										</clipPath>
										<path id="XMLID_5_" class="st22" d="M214.6,89.6c0,0-42.5,46.1-34.4,103.5c7.4,52.5,34.2,127.5,41.3,146.8
											c1,2.7,3.8,4.4,6.6,4l43.7-6.2c2.9-0.4,5.1-2.8,5.3-5.6c1.5-20.5,6.5-100.2-0.9-152.5C268.2,122.5,214.6,89.6,214.6,89.6"
											/>
									</g>
								</g>
							</g>
						</g>
						<g>
							<g>
								<path id="XMLID_8_" class="st21" d="M323.2,300.4c7.9-1.7,12.8-4.3,11.6-14.8c-1.2-10.6-2.9-10.9-4.3-14.2
									c-1.4-3.4-8.9-10.6-15.4-13.5c-6.5-2.9-28.6-22.2-31.8-47.2c-3.1-25-0.6-29.7-8-37.6c-8.2,0-10-2.4-10-2.4l-2,135
									C263.3,305.7,315.3,302.1,323.2,300.4z"/>
							</g>
							<g>
								<g>
									<g>
										<defs>
											<path id="SVGID_34_" d="M323.2,300.4c7.9-1.7,12.8-4.3,11.6-14.8c-1.2-10.6-2.9-10.9-4.3-14.2
												c-1.4-3.4-8.9-10.6-15.4-13.5c-6.5-2.9-28.6-22.2-31.8-47.2c-3.1-25-0.6-29.7-8-37.6c-8.2,0-10-2.4-10-2.4l-2,135
												C263.3,305.7,315.3,302.1,323.2,300.4z"/>
										</defs>
										<clipPath id="SVGID_35_">
											<use xlink:href="#SVGID_34_"  style="overflow:visible;"/>
										</clipPath>
										<path id="XMLID_9_" class="st23" d="M270.8,88.7c0,0-53.5,32.6-61.6,90c-7.3,52.5-2.2,132-0.7,152.5
											c0.2,2.9,2.4,5.2,5.3,5.6l43.7,6.1c2.9,0.4,5.6-1.2,6.6-4c7.1-19.3,33.8-94.5,41.1-146.8
											C313.3,135.1,270.8,88.7,270.8,88.7"/>
									</g>
								</g>
							</g>
						</g>
						<g>
							<g>
								<g>
									<path id="XMLID_1_" class="st24" d="M242.3,112.2c0,0-39.6,32.4-39.6,79.8c0,43.3,13.1,107.2,16.7,123.6
										c0.5,2.3,2.5,4.2,4.9,4.2h36c2.4,0,4.4-1.9,4.9-4.2c3.5-16.4,16.7-80.4,16.7-123.5C281.8,145,242.3,112.2,242.3,112.2"/>
								</g>
								<g>
									<g>
										<g>
											<defs>
												<path id="SVGID_36_" d="M242.3,112.2c0,0-39.6,32.4-39.6,79.8c0,43.3,13.1,107.2,16.7,123.6c0.5,2.3,2.5,4.2,4.9,4.2h36
													c2.4,0,4.4-1.9,4.9-4.2c3.5-16.4,16.7-80.4,16.7-123.5C281.8,145,242.3,112.2,242.3,112.2"/>
											</defs>
											<clipPath id="SVGID_37_">
												<use xlink:href="#SVGID_36_"  style="overflow:visible;"/>
											</clipPath>
											<rect x="242" y="100.7" class="st25" width="46" height="107"/>
										</g>
									</g>
								</g>
								<g>
									<g>
										<g>
											<defs>
												<path id="SVGID_38_" d="M242.3,112.2c0,0-39.6,32.4-39.6,79.8c0,43.3,13.1,107.2,16.7,123.6c0.5,2.3,2.5,4.2,4.9,4.2h36
													c2.4,0,4.4-1.9,4.9-4.2c3.5-16.4,16.7-80.4,16.7-123.5C281.8,145,242.3,112.2,242.3,112.2"/>
											</defs>
											<clipPath id="SVGID_39_">
												<use xlink:href="#SVGID_38_"  style="overflow:visible;"/>
											</clipPath>
											<path class="st26" d="M264,129.7c0,0-6.3,2-21.7,2s-22.3-2-22.3-2v-25h44V129.7z"/>
										</g>
									</g>
								</g>
								<g>
									<g>
										<g>
											<defs>
												<path id="SVGID_40_" d="M242.3,112.2c0,0-39.6,32.4-39.6,79.8c0,43.3,13.1,107.2,16.7,123.6c0.5,2.3,2.5,4.2,4.9,4.2h36
													c2.4,0,4.4-1.9,4.9-4.2c3.5-16.4,16.7-80.4,16.7-123.5C281.8,145,242.3,112.2,242.3,112.2"/>
											</defs>
											<clipPath id="SVGID_41_">
												<use xlink:href="#SVGID_40_"  style="overflow:visible;"/>
											</clipPath>
											<path class="st27" d="M255,327.7h-26v-137c0,0,4.2-5,13-5s13,5,13,5V327.7z"/>
										</g>
									</g>
								</g>
								<g>
									<g>
										<g>
											<defs>
												<path id="SVGID_42_" d="M242.3,112.2c0,0-39.6,32.4-39.6,79.8c0,43.3,13.1,107.2,16.7,123.6c0.5,2.3,2.5,4.2,4.9,4.2h36
													c2.4,0,4.4-1.9,4.9-4.2c3.5-16.4,16.7-80.4,16.7-123.5C281.8,145,242.3,112.2,242.3,112.2"/>
											</defs>
											<clipPath id="SVGID_43_">
												<use xlink:href="#SVGID_42_"  style="overflow:visible;"/>
											</clipPath>
											<path class="st28" d="M229,327.7h-26v-136c0,0,3.2-4,12-4s14,3,14,3V327.7z"/>
										</g>
									</g>
								</g>
								<g>
									<g>
										<g>
											<defs>
												<path id="SVGID_44_" d="M242.3,112.2c0,0-39.6,32.4-39.6,79.8c0,43.3,13.1,107.2,16.7,123.6c0.5,2.3,2.5,4.2,4.9,4.2h36
													c2.4,0,4.4-1.9,4.9-4.2c3.5-16.4,16.7-80.4,16.7-123.5C281.8,145,242.3,112.2,242.3,112.2"/>
											</defs>
											<clipPath id="SVGID_45_">
												<use xlink:href="#SVGID_44_"  style="overflow:visible;"/>
											</clipPath>
											<path class="st29" d="M255,327.7h27v-136c0,0-3.7-4-12.5-4s-14.5,3-14.5,3V327.7z"/>
										</g>
									</g>
								</g>
								<g>
									<g>
										<g>
											<defs>
												<path id="SVGID_46_" d="M242.3,112.2c0,0-39.6,32.4-39.6,79.8c0,43.3,13.1,107.2,16.7,123.6c0.5,2.3,2.5,4.2,4.9,4.2h36
													c2.4,0,4.4-1.9,4.9-4.2c3.5-16.4,16.7-80.4,16.7-123.5C281.8,145,242.3,112.2,242.3,112.2"/>
											</defs>
											<clipPath id="SVGID_47_">
												<use xlink:href="#SVGID_46_"  style="overflow:visible;"/>
											</clipPath>
											<polygon class="st30" points="272,321.7 216,321.7 216,308.7 218.2,308.7 266.3,308.7 272,308.7 											"/>
										</g>
									</g>
								</g>
							</g>
						</g>
						<path class="st31" d="M240.5,148.7l-0.1,7.6c0,0-8.1-1-16.2,0.8c-1.9,0.6-2.1-1-2.2-2.2c-0.1-1.5,0.6-3,4.4-4.2
							C233.4,148.8,240.5,148.7,240.5,148.7z"/>
						<path class="st31" d="M244,148.7l0.1,7.6c0,0,8.1-1,16.2,0.8c1.9,0.6,2.1-1,2.2-2.2c0.1-1.5-0.6-3-4.4-4.2
							C251.2,148.8,244,148.7,244,148.7z"/>
						<path class="st24" d="M243.3,335.3c-0.3,1.3-1.9,1.3-2.2,0c-1.6-6.9-12.3-56.3,1.2-56.3C255.8,279,245.1,328.4,243.3,335.3z"
							/>
						<rect x="226" y="319.7" class="st32" width="8" height="4"/>
						<polygon class="st33" points="235.9,328.7 224.1,328.7 225.1,323.7 234.9,323.7 						"/>
						<rect x="252" y="319.7" class="st32" width="8" height="4"/>
						<polygon class="st33" points="261.9,328.7 250.1,328.7 251.1,323.7 260.9,323.7 						"/>
					</g>
				</g>
			</g>
			<g id="lines" class="st2">
				<rect x="170" y="337.7" class="st34" width="35" height="127"/>
				<rect x="281" y="337.7" class="st34" width="34" height="127"/>
				<rect x="225" y="328.7" class="st34" width="10" height="136"/>
				<rect x="251" y="328.7" class="st34" width="10" height="136"/>
			</g>
		</g>
		<g>
			<g>
				<g>
					<defs>
						<rect id="SVGID_48_" x="0.5" y="11.5" width="1920" height="815.4"/>
					</defs>
					<clipPath id="SVGID_49_">
						<use xlink:href="#SVGID_48_"  style="overflow:visible;"/>
					</clipPath>
					<g id="pink-smoke" class="st35">
						<g class="st2">
							<g>
								<path class="st36" d="M389,639.6c18.2,0,37.3-7.9,50.1-20.8c6.9-6.4,11.8-14,14.7-22.8c4.4-8.4,6.5-17.5,6.1-27.3
									c-0.8-18.3-6.8-37.3-20.8-50.1c-13.9-12.7-30.9-20.8-50.1-20.8c-18.2,0-37.3,7.9-50.1,20.8c-6.9,6.4-11.8,14-14.7,22.8
									c-4.4,8.4-6.5,17.5-6.1,27.3c0.8,18.3,6.8,37.3,20.8,50.1C352.8,631.5,369.8,639.6,389,639.6L389,639.6z"/>
							</g>
						</g>
						<g class="st2">
							<g>
								<path class="st36" d="M455,653c14.8,0,29-13,28.3-28.3c-0.7-15.4-12.5-28.3-28.3-28.3c-14.8,0-29,13-28.3,28.3
									C427.3,640.1,439.1,653,455,653L455,653z"/>
							</g>
						</g>
						<g class="st2">
							<g>
								<path class="st36" d="M515,689c14.8,0,29-13,28.3-28.3c-0.7-15.4-12.5-28.3-28.3-28.3c-14.8,0-29,13-28.3,28.3
									C487.3,676.1,499.1,689,515,689L515,689z"/>
							</g>
						</g>
						<g class="st2">
							<g>
								<path class="st36" d="M546,777c14.8,0,29-13,28.3-28.3c-0.7-15.4-12.5-28.3-28.3-28.3c-14.8,0-29,13-28.3,28.3
									C518.3,764.1,530.1,777,546,777L546,777z"/>
							</g>
						</g>
						<g class="st2">
							<g>
								<path class="st36" d="M505,755c14.8,0,29-13,28.3-28.3c-0.7-15.4-12.5-28.3-28.3-28.3c-14.8,0-29,13-28.3,28.3
									C477.3,742.1,489.1,755,505,755L505,755z"/>
							</g>
						</g>
						<g class="st2">
							<g>
								<path class="st36" d="M567,716c11.1,0,21.8-9.8,21.3-21.3s-9.3-21.3-21.3-21.3c-11.1,0-21.8,9.8-21.3,21.3
									C546.3,706.2,555.1,716,567,716L567,716z"/>
							</g>
						</g>
						<g class="st2">
							<g>
								<path class="st36" d="M574,662.8c9.1,0,9.1-14.2,0-14.2C564.9,648.6,564.9,662.8,574,662.8L574,662.8z"/>
							</g>
						</g>
						<g class="st2">
							<g>
								<path class="st36" d="M477,586.8c9.1,0,9.1-14.2,0-14.2C467.9,572.6,467.9,586.8,477,586.8L477,586.8z"/>
							</g>
						</g>
						<g class="st2">
							<g>
								<path class="st36" d="M435,537.9c7.7,0,14.2-6.5,14.2-14.2s-6.5-14.2-14.2-14.2s-14.2,6.5-14.2,14.2S427.3,537.9,435,537.9
									L435,537.9z"/>
							</g>
						</g>
						<g class="st2">
							<g>
								<path class="st36" d="M487,653.9c7.7,0,14.2-6.5,14.2-14.2s-6.5-14.2-14.2-14.2s-14.2,6.5-14.2,14.2S479.3,653.9,487,653.9
									L487,653.9z"/>
							</g>
						</g>
						<g class="st2">
							<g>
								<path class="st36" d="M153,523.2c10.9,0,22.4-4.7,30.1-12.5c7.4-7.4,12.9-19.5,12.5-30.1c-1-23-18.7-42.5-42.5-42.5
									c-10.9,0-22.4,4.7-30.1,12.5c-7.4,7.4-12.9,19.5-12.5,30.1C111.5,503.7,129.2,523.2,153,523.2L153,523.2z"/>
							</g>
						</g>
						<g class="st2">
							<g>
								<path class="st36" d="M114.7,547.1c0.7,0.3,1.3,0.7,2,1c3.3,2.1,6.8,3.2,10.5,3.4c3.8,0.8,7.5,0.7,11.3-0.5
									c3.7-0.9,6.9-2.6,9.6-5.1c3.1-2,5.5-4.6,7.3-8c1-2.3,1.9-4.5,2.9-6.8c1.4-5,1.4-10,0-15.1c-1-2.3-1.9-4.5-2.9-6.8
									c-2.5-4.3-5.9-7.6-10.2-10.2c-0.7-0.3-1.3-0.7-2-1c-3.3-2.1-6.8-3.2-10.5-3.4c-3.8-0.8-7.5-0.7-11.3,0.5
									c-3.7,0.9-6.9,2.6-9.6,5.1c-3.1,2-5.5,4.6-7.3,8c-1,2.3-1.9,4.5-2.9,6.8c-1.4,5-1.4,10,0,15.1c1,2.3,1.9,4.5,2.9,6.8
									C107.1,541.2,110.5,544.5,114.7,547.1L114.7,547.1z"/>
							</g>
						</g>
						<g class="st2">
							<g>
								<path class="st36" d="M1,505c14.8,0,29-13,28.3-28.3c-0.7-15.4-12.5-28.3-28.3-28.3c-14.8,0-29,13-28.3,28.3
									C-26.7,492.1-14.9,505,1,505L1,505z"/>
							</g>
						</g>
						<g class="st2">
							<g>
								<path class="st36" d="M21,536c14.8,0,29-13,28.3-28.3c-0.7-15.4-12.5-28.3-28.3-28.3c-14.8,0-29,13-28.3,28.3
									C-6.7,523.1,5.1,536,21,536L21,536z"/>
							</g>
						</g>
						<g class="st2">
							<g>
								<path class="st36" d="M24,472.9c7.7,0,14.2-6.5,14.2-14.2s-6.5-14.2-14.2-14.2S9.8,451,9.8,458.7S16.3,472.9,24,472.9
									L24,472.9z"/>
							</g>
						</g>
						<g class="st2">
							<g>
								<path class="st36" d="M391,501.9c7.7,0,14.2-6.5,14.2-14.2s-6.5-14.2-14.2-14.2s-14.2,6.5-14.2,14.2S383.3,501.9,391,501.9
									L391,501.9z"/>
							</g>
						</g>
						<g class="st2">
							<g>
								<path class="st36" d="M91,477.8c9.1,0,9.1-14.2,0-14.2S81.9,477.8,91,477.8L91,477.8z"/>
							</g>
						</g>
					</g>
				</g>
			</g>
			<g>
				<g>
					<defs>
						<rect id="SVGID_50_" x="0.5" y="11.5" width="1920" height="815.4"/>
					</defs>
					<clipPath id="SVGID_51_">
						<use xlink:href="#SVGID_50_"  style="overflow:visible;"/>
					</clipPath>
					<g id="white-smoke" class="st37">
						<g>
							<path class="st34" d="M662,800.5c-0.1,0-0.1,0-0.2,0c-1.5-6.2-7.2-11-13.8-11c-3.8,0-7.3,1.6-9.9,4.2
								c-0.7-0.1-1.4-0.2-2.1-0.2c-6.1,0-11.4,4.1-13.4,9.6c-0.8-0.9-1.6-1.7-2.5-2.6c-3.8-3.5-7.9-6.5-12.3-9
								c4.9-2.3,8.4-7.3,8.4-12.9c0-7.7-6.5-14.2-14.2-14.2c-3.5,0-6.8,1.4-9.3,3.6c-3.8-11.3-13.9-19.8-26.7-19.8
								c-5.5,0-10.9,1.8-15.5,4.8c-1.1-1.2-2.2-2.4-3.4-3.6c-11.1-10.2-24.7-16.6-40.1-16.6c-1.9,0-3.8,0.1-5.7,0.3
								c0.9-0.8,1.9-1.7,2.8-2.5c9.8-9.8,17.2-26,16.6-40.1c-0.7-14.7-5.5-29.9-16.6-40.1c-11.1-10.2-24.7-16.6-40.1-16.6
								c-5.9,0-11.9,1.1-17.7,3c0-0.8,0.1-1.5,0-2.3c-0.7-15.4-12.5-28.3-28.3-28.3c-0.4,0-0.9,0-1.3,0c0.5-2.2,0.8-4.4,0.7-6.7
								c-0.5-11.7-7.5-22.1-17.9-26.3c1.3-2.7,1.9-5.6,1.8-8.7c-0.3-7.6-4.3-14.4-10.3-18.1c9.6-2,17.8-10.7,17.3-20.9
								c-0.5-10.8-8.3-20.1-19.2-21.2c0.3-1.6,0.4-3.2,0.3-4.8c-0.4-9.8-5.4-18.6-13-23.7c0-0.1,0-0.2,0-0.3
								c-0.7-15.4-12.5-28.3-28.3-28.3c-3.5,0-6.9,0.7-10.1,2c-0.3-0.3-0.5-0.5-0.8-0.8c-6.2-5.7-13.1-10.2-20.7-13
								c-2.6-5.5-6.1-10.5-10.6-14.6c-11.1-10.2-24.7-16.6-40.1-16.6c-1.6,0-3.2,0.1-4.8,0.2c1.6-3,2.5-6.3,2.4-9.9
								c-0.5-11.5-9.3-21.3-21.3-21.3c-10.1,0-19.7,8-21.1,18c-11.1,0.1-21.7,9.8-21.2,21.3c0,0.6,0.1,1.2,0.2,1.8
								c-2.1,3.3-3.3,7.1-3.2,11.2c0,0.4,0.1,0.8,0.1,1.3c-5.6,1.2-11,3.2-16,6c-6.2,2.8-11.9,6.7-16.6,11.3
								c-7,7-12.8,17.3-15.3,27.7c-8.7,2.1-16.5,7.8-21.2,15.4c-2-1.1-4.3-1.8-6.8-1.8c-7.7,0-14.2,6.5-14.2,14.2
								s6.5,14.2,14.2,14.2c1.4,0,2.8-0.2,4.1-0.6c1.8,5.4,4.8,10.3,8.8,14.2c-6.7,1.5-13.3,4.3-19,8c-0.3-0.3-0.5-0.5-0.8-0.8
								C103,524.4,89.4,518,74,518c-3.5,0-7,0.4-10.4,1.1c-0.5-0.5-1-1-1.5-1.4c-7.7-7.1-16.6-12.3-26.5-14.9
								c-2.6-8.4-7-16.1-13.5-22.1C11,470.4-2.6,464-18,464c-14.5,0-29.8,6.3-40.1,16.6c-9.8,9.8-17.2,26-16.6,40.1
								c0.7,14.7,5.5,29.9,16.6,40.1c7.7,7.1,16.6,12.3,26.5,14.9c0.7,2.1,1.4,4.3,2.4,6.3c-4.8,8.4-7.6,17.7-7.5,27.7
								c0.1,63,1.7,125.9,4.8,188.8c1.1,22.9,13.3,42.7,34.9,51.8c4.4,2.6,9.2,3.9,14.3,3.9c5,1.4,10,1.4,15.1,0
								c11.6-1.6,24.7-6.4,32.6-15.6c3-3.5,5.9-7,8.9-10.5c6.2,10,15.5,17.3,26.3,21.8c4.4,2.6,9.2,3.9,14.3,3.9
								c5,1.4,10,1.4,15.1,0c12.5-1.7,23.3-6.7,32.6-15.6c4.4-4.2,8.6-8.6,12.6-13.2c0.8,1.6,1.7,3.2,2.5,4.8
								c5,8.5,11.8,15.3,20.3,20.3c6.5,4.1,13.5,6.4,21.1,6.7c7.5,1.7,15.1,1.4,22.6-1c9.6-2.7,17.9-7.6,25-14.6c1.6-2,3.1-4,4.7-6
								c0.2,0.3,0.3,0.6,0.5,0.8c3,3.8,5.9,7.6,8.9,11.5c7.1,7,15.4,11.9,25,14.6c2,0.7,3.9,1.5,5.9,2.2c7.5,2.4,15.1,2.7,22.6,1
								c7.5-0.3,14.6-2.6,21.1-6.7c6.6-3.6,11.9-8.4,15.9-14.6c0.2-0.2,0.3-0.4,0.5-0.6c0.4,0,0.7-0.1,1.1-0.1
								c8.5-2.4,16-6.5,22.5-12.2c1.2,13.6,6.1,27.2,16.4,36.6c11.1,10.2,24.7,16.6,40.1,16.6c8.6,0,17.5-2.2,25.5-6.2
								c2.7,2.4,5.7,4.6,8.9,6.5c4.5,1.9,9,3.8,13.5,5.7c4.7,1.3,9.3,1.9,14,2c0.2,0,0.3,0,0.5,0c7.5,1.7,15.1,1.4,22.6-1
								c4.1-1,8-2.5,11.5-4.5c9.5,6.6,20.4,10.5,32.4,10.5c14.5,0,29.8-6.3,40.1-16.6c9.8-9.8,17.2-26,16.6-40.1
								c-0.3-6.4-1.4-12.9-3.4-19.1c0.9,0.2,1.8,0.3,2.7,0.3c3.8,0,7.3-1.6,9.9-4.2c0.7,0.1,1.4,0.2,2.1,0.2c0.1,0,0.1,0,0.2,0
								c1.5,6.2,7.2,11,13.8,11c7.7,0,14.2-6.5,14.2-14.2C676.2,807,669.7,800.5,662,800.5z"/>
							<path class="st34" d="M743.9,797.6c-3.7-6-10.1-10.2-17.9-10.2c-5.9,0-11.7,2.8-15.8,7.1c-0.7-0.1-1.5-0.1-2.2-0.1
								c-11.1,0-21.8,9.8-21.3,21.3S696,837,708,837c4.9,0,9.7-1.9,13.5-5c3.8,4.3,9.2,7,15.5,7c11.1,0,21.8-9.8,21.3-21.3
								C757.8,808.5,752.2,800.5,743.9,797.6z"/>
							<path class="st34" d="M784,799.5c-7.7,0-14.2,6.5-14.2,14.2s6.5,14.2,14.2,14.2s14.2-6.5,14.2-14.2S791.7,799.5,784,799.5z"
								/>
						</g>
						<g>
							<g>
								<path class="st38" d="M759,286.7"/>
							</g>
						</g>
						<g>
							<g>
								<path class="st34" d="M425,561.7c6.4,0,6.4-10,0-10S418.6,561.7,425,561.7L425,561.7z"/>
							</g>
						</g>
						<g>
							<g>
								<path class="st34" d="M427,582.9c7.7,0,14.2-6.5,14.2-14.2s-6.5-14.2-14.2-14.2s-14.2,6.5-14.2,14.2S419.3,582.9,427,582.9
									L427,582.9z"/>
							</g>
						</g>
						<g>
							<g>
								<path class="st34" d="M590,725.9c7.7,0,14.2-6.5,14.2-14.2s-6.5-14.2-14.2-14.2s-14.2,6.5-14.2,14.2S582.3,725.9,590,725.9
									L590,725.9z"/>
							</g>
						</g>
						<g>
							<g>
								<path class="st34" d="M92,460c14.6,0,14.6-22.7,0-22.7C77.4,437.4,77.4,460,92,460L92,460z"/>
							</g>
						</g>
						<g>
							<g>
								<path class="st34" d="M328,428.8c9.1,0,9.1-14.2,0-14.2S318.9,428.8,328,428.8L328,428.8z"/>
							</g>
						</g>
						<g>
							<g>
								<path class="st34" d="M390,450.8c9.1,0,9.1-14.2,0-14.2S380.9,450.8,390,450.8L390,450.8z"/>
							</g>
						</g>
						<g>
							<g>
								<path class="st34" d="M150,414.8c9.1,0,9.1-14.2,0-14.2S140.9,414.8,150,414.8L150,414.8z"/>
							</g>
						</g>
						<g>
							<g>
								<path class="st34" d="M657,797.7c1.9,0,1.9-3,0-3S655.1,797.7,657,797.7L657,797.7z"/>
							</g>
						</g>
						<g>
							<g>
								<path class="st34" d="M677.5,818.7c1.9,0,1.9-3,0-3S675.6,818.7,677.5,818.7L677.5,818.7z"/>
							</g>
						</g>
						<g>
							<g>
								<path class="st34" d="M681,816.5c16.4,0,16.4-25.5,0-25.5C664.6,790.9,664.6,816.5,681,816.5L681,816.5z"/>
							</g>
						</g>
						<g>
							<g>
								<path class="st34" d="M761.5,830.5c16.4,0,16.4-25.5,0-25.5C745.1,804.9,745.1,830.5,761.5,830.5L761.5,830.5z"/>
							</g>
						</g>
						<g>
							<g>
								<path class="st34" d="M617.5,802c16.4,0,16.4-25.5,0-25.5C601.1,776.4,601.1,802,617.5,802L617.5,802z"/>
							</g>
						</g>
						<g>
							<g>
								<path class="st34" d="M622,814.5c16.4,0,16.4-25.5,0-25.5C605.6,788.9,605.6,814.5,622,814.5L622,814.5z"/>
							</g>
						</g>
					</g>
				</g>
			</g>
		</g>
	</g>
</g>
</svg>
